<svg xmlns="http://www.w3.org/2000/svg">
    <symbol id="x" viewBox="0 0 24 24">
        <path d="M6 6L18 18M18 6L6 18"/>
    </symbol>
    <symbol id="o" viewBox="0 0 24 24">
        <!--        <path d="M12 4 C16.4183 4 20 7.5817 20 12 C20 16.4183 16.4183 20 12 20 C7.5817 20 4 16.4183 4 12 C4 7.5817 7.5817 4 12 4 Z"/>-->
        <path d="M4.06189 13C4.02104 12.6724 4 12.3387 4 12C4 7.58172 7.58172 4 12 4C14.5006 4 16.7332 5.14727 18.2002 6.94416M19.9381 11C19.979 11.3276 20 11.6613 20 12C20 16.4183 16.4183 20 12 20C9.61061 20 7.46589 18.9525 6 17.2916M9 17H6V17.2916M18.2002 4V6.94416M18.2002 6.94416V6.99993L15.2002 7M6 20V17.2916"/>
    </symbol>
    <symbol id="v" viewBox="0 0 24 24">
        <line x1="12" y1="4" x2="12" y2="20"/>
    </symbol>
    <symbol id="delete" viewBox="0 0 24 24">
        <!--        <path d="M4 7H20"/>-->
        <!--        <path d="M6 7V18C6 19.6569 7.34315 21 9 21H15C16.6569 21 18 19.6569 18 18V7"/>-->
        <!--        <path d="M9 5C9 3.89543 9.89543 3 11 3H13C14.1046 3 15 3.89543 15 5V7H9V5Z"/>-->
        <path d="M 2.4 6 H 21.6"/>
        <path d="M 4.8 6 V 19.2 C 4.8 21.19, 6.41 22.8, 8.4 22.8 H 15.6 C 17.59 22.8, 19.2 21.19, 19.2 19.2 V 6"/>
        <path d="M 8.4 3.6 C 8.4 2.27, 9.47 1.2, 10.8 1.2 H 13.2 C 14.53 1.2, 15.6 2.27, 15.6 3.6 V 6 H 8.4 V 3.6 Z"/>
    </symbol>
    <!--    <symbol id="back" viewBox="0 0 24 24">-->
    <!--        <path d="M20 12H2M8 19L2 12L8 5"/>-->
    <!--    </symbol>-->
    <symbol id="back" viewBox="0 0 24 24">
        <line x1="3" y1="4" x2="21" y2="4"/>
        <line x1="3" y1="12" x2="21" y2="12"/>
        <line x1="3" y1="20" x2="21" y2="20"/>
    </symbol>
    <symbol id="download" viewBox="0 0 24 24">
        <!--        <path d="M3 15C3 17.8284 3 19.2426 3.87868 20.1213C4.75736 21 6.17157 21 9 21H15C17.8284 21 19.2426 21 20.1213 20.1213C21 19.2426 21 17.8284 21 15"/>-->
        <!--        <path d="M12 3V16M12 16L16 11.625M12 16L8 11.625"/>-->
        <!--    <path d="M2 15.333 C2 18.48 2 20.05 2.98 21.02 C3.95 22 5.52 22 8.667 22 H15.333 C18.48 22 20.05 22 21.02 21.02 C22 20.05 22 18.48 22 15.333"/>-->
        <!--    <path d="M12 2 V16.444 M12 16.444 L18 11.583 M12 16.444 L6 11.583"/>-->
        <path d="M2 15.333 C2 18.48 2 20.05 2.98 21.02 C3.95 22 5.52 22 8.667 22 H15.333 C18.48 22 20.05 22 21.02 21.02 C22 20.05 22 18.48 22 15.333"/>
        <!-- Симметричная стрелка вниз (ровно по центру) -->
        <path d="M12 2 V15 M12 15 L8 12 M12 15 L16 12"/>
        <!--        <path d="M12 17L12 7M12 17L8 13M12 17L16 13" />-->
    </symbol>

    <symbol id="eq" viewBox="0 0 24 24">
        <path d="M8 8L16 16M16 8L8 16"/>
        <!--        <line x1="5" y1="12" x2="19" y2="12"/>-->
    </symbol>

    <symbol id="left" viewBox="0 0 24 24">
        <line x1="3" y1="12" x2="21" y2="12"/>
        <polyline points="10 19 3 12 10 5"/>
    </symbol>

    <symbol id="save" viewBox="0 0 24 24">
        <path d="M5 12L10 17L19 8"/>
    </symbol>

    <symbol id="plus" viewBox="0 0 24 24">
        <line x1="12" y1="4" x2="12" y2="20"/>
        <line x1="4" y1="12" x2="20" y2="12"/>
    </symbol>
    <symbol id="line" viewBox="0 0 60 5">
        <line x1="2" y1="3" x2="58" y2="3"/>
    </symbol>
    <symbol id="dash" viewBox="0 0 60 5">
        <line x1="2" y1="3" x2="58" y2="3" stroke-dasharray="8 8"/>
    </symbol>
    <symbol id="wave" viewBox="0 0 60 5">
        <path d="M 2 3
               Q 5 2, 7 2
               Q 10 2, 12 3
               Q 14 4, 17 4
               Q 20 4, 22 3
               Q 25 2, 27 2
               Q 30 2, 32 3
               Q 35 4, 37 4
               Q 40 4, 42 3
               Q 45 2, 47 2
               Q 50 2, 52 3
               Q 55 4, 57 4
               L 58 4"
        />
    </symbol>


    <symbol id="rotate" viewBox="0 0 24 24">
        <!--        <path d="M4.06189 13C4.02104 12.6724 4 12.3387 4 12C4 7.58172 7.58172 4 12 4C14.5006 4 16.7332 5.14727 18.2002 6.94416M19.9381 11C19.979 11.3276 20 11.6613 20 12C20 16.4183 16.4183 20 12 20C9.61061 20 7.46589 18.9525 6 17.2916M9 17H6V17.2916M18.2002 4V6.94416M18.2002 6.94416V6.99993L15.2002 7M6 20V17.2916"/>-->
        <!--        <path d="M20.4898 14.9907C19.8414 16.831 18.6124 18.4108 16.9879 19.492C15.3635 20.5732 13.4316 21.0972 11.4835 20.9851C9.5353 20.873 7.67634 20.1308 6.18668 18.8704C4.69703 17.61 3.65738 15.8996 3.22438 13.997C2.79138 12.0944 2.98849 10.1026 3.78602 8.32177C4.58354 6.54091 5.93827 5.06746 7.64608 4.12343C9.35389 3.17941 11.3223 2.81593 13.2546 3.08779C16.5171 3.54676 18.6725 5.91142 21 8M21 8V2M21 8H15"/>-->

        <!--        <path d="M7.25 22H11.75C15.5 22 17 20.5 17 16.75V12.25C17 8.5 15.5 7 11.75 7H7.25C3.5 7 2 8.5 2 12.25V16.75C2 20.5 3.5 22 7.25 22Z"/>-->
        <!--        <path  d="M22 9C22 5.13 18.87 2 15 2L16.05 3.75" />-->
        <path transform="translate(-3, -3)" d="M5.0774 16.25C5.0263 15.8405 5.0 15.4234 5.0 15.0C5.0 9.4771 9.4771 5.0 15.0 5.0C18.1258 5.0 20.9165 6.4341 22.7502 8.6802M24.9226 13.75C24.9737 14.1595 25.0 14.5766 25.0 15.0C25.0 20.5229 20.5229 25.0 15.0 25.0C12.0133 25.0 9.3324 23.6906 7.5 21.6145M11.25 21.25H7.5V21.6145M22.7502 5.0V8.6802M22.7502 8.6802V8.7499L19.0003 8.75M7.5 25.0V21.6145
"/>
    </symbol>

    <symbol id="direction" viewBox="0 0 24 24">
        <rect x="3" y="3" width="18" height="18" rx="2" ry="2"/>
        <!--        <line stroke="var(&#45;&#45;blue)" x1="10" y1="10" x2="23" y2="10"/>-->
        <line stroke-width="2" x1="10" y1="1" x2="10" y2="23"/>
    </symbol>

    <symbol id="cut" viewBox="0 0 24 24">
        <rect x="3" y="3" width="18" height="18" rx="2" ry="2"/>
        <line x1="10" y1="1" x2="10" y2="23"/>
        <line x1="10" y1="10" x2="23" y2="10"/>
    </symbol>
    <symbol id="set" viewBox="0 0 24 24">
        <line x1="3" y1="2" x2="3" y2="22"/>
        <rect x="8" y="3" width="14" height="6" rx="2" ry="2"/>
        <rect x="8" y="14" width="10" height="7" rx="2" ry="2"/>
    </symbol>
</svg>


